,
Brought to you by  http://www.scenetime.com/signup.php
 
 Hottest scene tracker on the net !!!   
 
No fake torrents from scenebalance 
shame on those who comment fake before downloading my torrents

    seed back for speed


 



...................................NFO:.................................................[img]http://noob.hu/2011/05/27/kung-fu-panda-2-poster.jpg[img]                                        
 

                  ::::::::::::  EP1C Presents  ::::::::::::

::File:: Kung.Fu.Panda.2.2011.TS.AC3.XViD-EP1C

::Video Source:: That Russian Good Good
::Audio Source:: Our Own Good Good

::Encoder::::::: iNK
::Syncer:::::::: iNK

::Language:::::: English
::IMDB:::::::::: http://www.imdb.com/title/tt1302011/

Po joins forces with a group of new kung-fu masters to 
take on an old enemy with a deadly new weapon.

::Specs:::::::::

Format                           : AVI
Format/Info                      : Audio Video Interleave
File size                        : 1.37 GiB
Duration                         : 1h 20mn
Overall bit rate                 : 2 421 Kbps
Writing application              : VirtualDubMod 1.5.10.2 (build 2540/release)
Writing library                  : VirtualDubMod build 2540/release

Video
ID                               : 0
Format                           : MPEG-4 Visual
Format profile                   : Advanced Simple@L5
Format settings, BVOP            : Yes
Format settings, QPel            : No
Format settings, GMC             : No warppoints
Format settings, Matrix          : Default (H.263)
Muxing mode                      : Packed bitstream
Codec ID                         : XVID
Codec ID/Hint                    : XviD
Duration                         : 1h 20mn
Bit rate                         : 2 220 Kbps
Width                            : 672 pixels
Height                           : 352 pixels
Display aspect ratio             : 1.909
Frame rate                       : 25.000 fps
Color space                      : YUV
Chroma subsampling               : 4:2:0
Bit depth                        : 8 bits
Scan type                        : Progressive
Bits/(Pixel*Frame)               : 0.375
Stream size                      : 1.26 GiB (92%)
Writing library                  : XviD 58

Audio
ID                               : 1
Format                           : AC-3
Format/Info                      : Audio Coding 3
Mode extension                   : CM (complete main)
Codec ID                         : 2000
Duration                         : 1h 20mn
Bit rate mode                    : Constant
Bit rate                         : 192 Kbps
Channel(s)                       : 2 channels
Channel positions                : Front: L R
Sampling rate                    : 48.0 KHz
Bit depth                        : 16 bits
Stream size                      : 111 MiB (8%)
Alignment                        : Split accross interleaves
Interleave, duration             : 40 ms (1.00 video frame)
Interleave, preload duration     : 500 ms


::NOTES::::::::: 
Presenting the first TeleSync of Kung Fu Panda 2. Ran a few things through 
to clean it up. This will do until something better. Also, comes with our
own LiNE, in full stereo. Enjoy. //iNK

:: Got something we might be interested in? contact us: epic@hushmail.me ::

::::::::::::::::::::::::::::::::  RESPECT  :::::::::::::::::::::::::::::::::
IMAGiNE, Rx, FLAWL3SS, ViSiON, T0XiC, HiVE, bobwhite & All Our Friends!

                 ::::::::::::::::  We Are  ::::::::::::::::  
               :::::: Surpassing the usual or ordinary ::::::
::::::::::::::::::    Heroic and impressive in quality    ::::::::::::::::::     
 ::::::::::::::::::::::::::::::::   EP1C   ::::::::::::::::::::::::::::::::

[img]http://noob.hu/2011/05/27/vlcsnap-2011-05-27-12h27m55s135.png[/img]
[img]http://noob.hu/2011/05/27/vlcsnap-2011-05-27-12h29m49s255.png[/img]
[img]http://noob.hu/2011/05/27/vlcsnap-2011-05-27-12h29m18s209.png[/img]
[img]http://noob.hu/2011/05/27/vlcsnap-2011-05-27-12h28m42s103.png[/img]
[img]http://noob.hu/2011/05/27/vlcsnap-2011-05-27-12h28m53s205.png[/img]